<?xml version="1.0" encoding="UTF-8" standalone="no"?>
<!-- Created with Inkscape (http://www.inkscape.org/) -->

<svg
   xmlns:dc="http://purl.org/dc/elements/1.1/"
   xmlns:cc="http://creativecommons.org/ns#"
   xmlns:rdf="http://www.w3.org/1999/02/22-rdf-syntax-ns#"
   xmlns:svg="http://www.w3.org/2000/svg"
   xmlns="http://www.w3.org/2000/svg"
   xmlns:sodipodi="http://sodipodi.sourceforge.net/DTD/sodipodi-0.dtd"
   xmlns:inkscape="http://www.inkscape.org/namespaces/inkscape"
   width="420"
   height="126"
   id="svg2"
   version="1.1"
   inkscape:version="0.48.5 r10040"
   sodipodi:docname="logo.svg">
  <defs
     id="defs4" />
  <sodipodi:namedview
     id="base"
     pagecolor="#ffffff"
     bordercolor="#666666"
     borderopacity="1.0"
     inkscape:pageopacity="0.0"
     inkscape:pageshadow="2"
     inkscape:zoom="1.979899"
     inkscape:cx="295.83438"
     inkscape:cy="193.46654"
     inkscape:document-units="px"
     inkscape:current-layer="layer1"
     showgrid="false"
     inkscape:window-width="1920"
     inkscape:window-height="1029"
     inkscape:window-x="0"
     inkscape:window-y="27"
     inkscape:window-maximized="1" />
  <metadata
     id="metadata7">
    <rdf:RDF>
      <cc:Work
         rdf:about="">
        <dc:format>image/svg+xml</dc:format>
        <dc:type
           rdf:resource="http://purl.org/dc/dcmitype/StillImage" />
        <dc:title></dc:title>
      </cc:Work>
    </rdf:RDF>
  </metadata>
  <g
     inkscape:label="Layer 1"
     inkscape:groupmode="layer"
     id="layer1"
     transform="translate(0,-926.36218)">
    <path
       style="fill:#000000"
       d="m 204.63001,1041.4769 c -4.306,-0.493 -12.163,-0.7723 -17.459,-0.6206 -5.297,0.1517 -9.638,-0.1295 -9.647,-0.6249 0,-0.4953 -0.301,-1.5983 -0.647,-2.451 -0.395,-0.974 1.903,-4.5694 6.182,-9.6695 3.746,-4.4654 6.4,-8.4749 5.897,-8.91 -1.524,-1.3192 -7.903,-3.0387 -8.897,-2.398 -0.512,0.3301 -2.69,0.041 -4.84,-0.6441 -2.151,-0.6843 -4.538,-1.3393 -5.305,-1.4555 -0.767,-0.1162 -4.76299,-0.7071 -8.87899,-1.313 -4.116,-0.6059 -8.778,-1.7323 -10.36,-2.5029 -1.581,-0.7707 -4.174,-1.5283 -5.761,-1.6836 -1.587,-0.1554 -4.443,-1.0518 -6.347,-1.9921 -4.746,-2.3442 -23.672,-6.6426 -30.035,-6.8216 -2.866,-0.08 -7.337,-1.05146 -9.937001,-2.15736 -6.923999,-2.9461 -10.453999,-3.9833 -15.712999,-4.6167 -2.584,-0.3112 -6.820999,-1.2686 -9.414999,-2.1273 -2.595,-0.8588 -7.738,-1.79193 -11.429999,-2.07364 -6.397,-0.48802 -6.629,-0.59977 -4.919,-2.36943 2.173,-2.25039 2.178,-2.25025 -5.261,-0.15945 -3.282,0.92232 -6.643999,1.68989 -7.470999,1.70583 -2.517,0.0479 1.197,-3.47788 6.756999,-6.41632 7.118,-3.76144 3.41,-3.86223 -10.711999,-0.29124 -15.365999,3.88547 -19.107999,3.49148 -9.875,-1.03978 3.689,-1.81061 9.879,-4.40197 13.757,-5.7586 3.877999,-1.35662 6.811999,-2.69621 6.519999,-2.97687 -0.291,-0.28065 -4.416,0.0589 -9.165999,0.75457 -13.424999,1.96622 -30.733998,3.1044 -28.935998,1.90269 2.514999,-1.68056 13.162999,-4.31053 25.917998,-6.40162 6.568,-1.0767 12.100999,-2.11933 12.295999,-2.31694 0.195,-0.19763 -5.664999,-0.21432 -13.020999,-0.0371 -7.357,0.17722 -15.491999,-0.005 -18.076999,-0.40648 -4.504,-0.69808 -4.578,-0.76524 -1.767,-1.59965 1.613,-0.47903 7.695,-1.07995 13.514999,-1.33535 14.985999,-0.65768 17.719999,-1.64739 7.931,-2.87063 -11.312999,-1.41367 -25.979998,-3.95157 -28.589998,-4.9471 -6.8617999,-2.61709 25.708998,-0.10248 42.091997,3.24975 7.987,1.63422 5.856,0.2651 -3.839,-2.46697 -5.099999,-1.43698 -12.104999,-3.69158 -15.567999,-5.01024 -7.394999,-2.81613 -21.608998,-9.60112 -21.138998,-10.09011 0.179,-0.18635 6.411999,1.84923 13.850999,4.52353 17.870999,6.42499 33.075998,11.14234 33.727998,10.46438 0.289,-0.30036 -2.246,-1.70867 -5.633,-3.12958 -8.211,-3.4446 -19.068999,-9.6802 -23.636999,-13.57453 -3.952999,-3.36991 -2.609999,-3.14022 2.612,0.4466 8.737,6.00149 24.270999,13.52213 28.979998,14.03107 1.399,0.1512 5.616,1.60077 9.371,3.22127 6.113,2.63824 20.245999,7.22677 39.829999,12.93204 10.65,3.10255 22.963,5.69471 29.807,6.27509 10.557,0.89528 14.121,1.51087 13.623,2.35311 -0.263,0.44405 0.796,0.79035 2.354,0.76953 1.557,-0.0206 5.658,0.69592 9.113,1.59274 3.45399,0.89681 10.20299,2.36613 14.99699,3.26516 8.7,1.63136 11.674,3.54426 10.102,6.49787 -0.382,0.7189 0.403,0.2159 1.745,-1.11771 2.046,-2.03259 2.19,-2.57375 0.891,-3.34574 -2.323,-1.38047 -1.166,-1.93623 6.665,-3.19885 5.411,-0.8725 9.037,-0.82233 15.044,0.2082 10.822,1.8563 21.213,1.48676 31.483,-1.11968 4.749,-1.20514 12.377,-2.54075 16.952,-2.96801 10.252,-0.95747 24.853,-3.42619 42.569,-7.19771 12.729,-2.70993 16.216,-3.71596 32.63099,-9.41368 3.699,-1.28409 9.521,-3.21273 12.938,-4.28588 9.777,-3.07091 21.313,-8.73445 35.938,-17.64454 3.867,-2.35532 7.241,-4.07881 7.5,-3.82999 1.238,1.19099 -22.707,15.14078 -32.807,19.1128 -3.269,1.28581 -5.935,2.82288 -5.924,3.41569 0.01,0.59887 0.825,0.75139 1.83,0.34322 4.32,-1.75458 43.431,-11.80671 45.826,-11.7782 1.455,0.0173 2.179,0.19712 1.61,0.39956 -9.147,3.25452 -28.62,8.91643 -36.334,10.56455 -5.464,1.16743 -10.244,2.4608 -10.622,2.87414 -0.643,0.70391 13.72,-0.17668 28.892,-1.77112 3.683,-0.38714 9.776,-0.40194 13.54,-0.0329 l 6.843,0.67098 -11.428,1.53174 c -6.286,0.84245 -14.942,1.6629 -19.235,1.8232 -14.61,0.54541 -11.85,1.8857 5.92,2.87578 9.675,0.53901 19.472,1.32603 21.772,1.74897 l 4.181,0.76896 -5.723,0.29231 c -10.588,0.54075 -27.553,0.52942 -32.709,-0.0219 -3.355,-0.35864 -4.883,-0.1867 -4.441,0.49957 0.371,0.57554 3.114,1.32251 6.095,1.6599 8.983,1.01666 32.679,7.22929 30.586,8.01902 -0.962,0.36265 -26.705,-2.80661 -38.311,-4.71636 -4.763,-0.78366 -2.244,1.31312 3.802,3.16569 6.604,2.02336 16.065,6.55749 19.699,9.4406 l 2.645,2.09754 -3.137,-0.63143 c -1.726,-0.34732 -3.847,-0.97252 -4.714,-1.38931 -2.829,-1.35953 -23.138,-6.0122 -23.699,-5.42933 -0.3,0.31212 1.036,1.33902 2.969,2.28199 3.941,1.92233 11.727,7.58133 11.194,8.13583 -0.191,0.1978 -4.044,-0.7367 -8.562,-2.0769 -4.519,-1.34003 -8.458,-2.18589 -8.753,-1.87949 -0.294,0.30628 0.366,1.51592 1.469,2.68809 l 2.004,2.1312 -12.372,-0.4401 c -6.805,-0.242 -12.649,-0.049 -12.986,0.4296 -1.147,1.627 -7.10399,4.64 -9.25499,4.6814 -1.179,0.023 -4.52,1.0308 -7.424,2.24036 -2.904,1.2096 -5.602,2.0101 -5.994,1.779 -2.591,-1.5257 -29.255,3.7851 -40.134,7.9937 -5.392,2.0858 -22.684,5.9752 -33.115,7.4486 -4.531,0.6397 -8.838,1.6817 -9.572,2.3153 -1.046,0.9022 0.621,3.1804 7.684,10.5022 l 9.019,9.3501 -3.9,0.5956 c -2.144,0.3276 -5.778,0.384 -8.074,0.1252 -2.297,-0.2586 -6.742,0.1708 -9.878,0.9545 -6.454,1.6131 -8.765,1.6597 -19.783,0.3982 z m 7.701,-9.681 c 1.868,-1.941 1.831,-2.7137 -0.126,-2.6761 -0.859,0.017 -1.558,0.226 -1.553,0.4654 0,0.2395 -0.262,1.1821 -0.592,2.0946 -0.748,2.0649 0.342,2.1205 2.271,0.1161 z m -7.914,-1.4236 c -0.01,-0.5388 -0.493,-1.2603 -1.072,-1.6033 -0.58,-0.3429 -1.04,0.107 -1.023,0.9998 0.02,0.8928 0.5,1.6143 1.073,1.6033 0.572,-0.01 1.032,-0.4608 1.022,-0.9998 z m 28.501,-24.1962 c 2.133,-1.8374 3.259,-3.7619 3.235,-5.5307 -0.02,-1.49186 0.44,-3.42496 1.021,-4.29536 0.789,-1.1824 0.99,-0.4619 0.792,2.8493 -0.299,5.00916 -0.298,5.00946 3.915,2.20386 1.697,-1.1302 3.782,-2.37656 4.634,-2.76956 0.852,-0.3931 2.7,-1.8006 4.106,-3.1278 2.451,-2.3122 12.971,-6.66926 14.835,-6.14458 0.493,0.13872 1.614,-0.36399 2.492,-1.11705 1.267,-1.08687 1.691,-1.10254 2.059,-0.076 0.696,1.94323 2.081,1.56612 6.879,-1.87231 3.924,-2.81227 5.503,-3.22234 15.734,-4.0855 9.133,-0.77059 12.188,-1.45347 15.52,-3.46911 2.301,-1.39231 6.91,-2.88265 10.352,-3.34744 5.276,-0.71245 19.85599,-6.63068 18.81099,-7.63585 -0.19,-0.18299 -3.112,0.84615 -6.494,2.28698 -3.38199,1.44083 -9.48999,3.38253 -13.57399,4.3149 -4.083,0.93236 -8.75,2.41324 -10.37,3.2908 -1.62,0.87761 -7.294,1.98017 -12.608,2.45016 -5.315,0.47 -10.829,1.32358 -12.254,1.89683 -1.425,0.57325 -4.786,1.10498 -7.468,1.1816 -2.683,0.0765 -6.738,0.86296 -9.013,1.74742 -2.275,0.88446 -7.879,1.93597 -12.455,2.3367 -13.846,1.21267 -25.305,5.27855 -25.451,9.03085 -0.293,7.49616 0.197,12.73496 1.189,12.71606 0.463,-0.01 2.313,-1.2843 4.113,-2.8342 z m -44.201,0.2182 c 0.751,-3.0325 0.669,-8.03436 -0.195,-11.96266 -0.64,-2.9061 -1.28,-3.2558 -10.264,-5.60391 -5.269,-1.37745 -11.75699,-2.70687 -14.41699,-2.95428 -2.659,-0.2474 -6.896,-1.16189 -9.413,-2.03218 -7.609,-2.63 -17.375,-4.45011 -34.632,-6.45442 -2.16,-0.25092 -7.58,-1.7601 -12.043,-3.35373 -4.463,-1.59364 -10.469001,-3.39973 -13.345,-4.01354 -2.876,-0.61379 -7.513,-2.4605 -10.304,-4.10379 -2.791,-1.64329 -5.512,-2.9794 -6.045999,-2.96914 -1.541,0.0296 -1.103,1.63802 0.914999,3.3584 2.097,1.78832 20.046999,7.50285 25.042,7.97258 1.804,0.16969 4.655,1.24814 6.335,2.39654 1.88,1.2846 6.131,2.4558 11.049,3.04385 8.772,1.04893 18.67,3.95689 25.838,7.59054 2.545,1.29015 6.14,2.3166 7.989,2.28108 1.849,-0.0354 3.959,0.6272 4.688,1.4725 0.729,0.8453 2.18,1.5206 3.224,1.5006 1.048,-0.02 2.532,1.2355 3.312,2.801 0.864,1.7355 3.49499,3.8085 6.77499,5.33846 2.95,1.3756 6.979,3.7371 8.955,5.2478 4.424,3.3822 5.787,3.4749 6.537,0.4443 z m 19.304,-5.3183 c -0.01,-0.5727 0.468,-1.0506 1.065,-1.0621 3.467,-0.067 7.323,-9.20236 5.185,-12.28256 -1.028,-1.48002 -7.105,-2.55981 -9.618,-1.70887 -1.981,0.67117 -4.12,4.81637 -4.061,7.87387 0.02,1.0744 1.278,3.3719 2.795,5.1054 2.767,3.16376 4.672,4.01606 4.634,2.07426 z m 2.004,-4.12616 c 0,-0.4935 0.681,-1.1804 1.534,-1.5266 0.852,-0.346 1.558,-0.2255 1.567,0.2679 0,0.4934 -0.68,1.1804 -1.533,1.5265 -0.853,0.3461 -1.558,0.2256 -1.568,-0.2678 z"
       id="path3108"
       inkscape:connector-curvature="0"
       sodipodi:nodetypes="csccccccsscccccsccccccscscscccsccsscscccccsccscssccccccccccsscccccccccsccsccssccsccscccccccccccccccccccccccccccccscccsscccscccccccccccscscscccscsccccccccccsssscccsscscccscccccccccccsc" />
  </g>
</svg>
